<svg id="visual" viewBox="0 0 960 100" width="960" height="100" xmlns="http://www.w3.org/2000/svg" xmlns:xlink="http://www.w3.org/1999/xlink" version="1.1"><path d="M0 65L9.3 66.7C18.7 68.3 37.3 71.7 56.2 72.8C75 74 94 73 112.8 69C131.7 65 150.3 58 169.2 57.3C188 56.7 207 62.3 225.8 66.7C244.7 71 263.3 74 282.2 75.8C301 77.7 320 78.3 338.8 78.5C357.7 78.7 376.3 78.3 395.2 76C414 73.7 433 69.3 451.8 65.2C470.7 61 489.3 57 508.2 58.2C527 59.3 546 65.7 564.8 69.3C583.7 73 602.3 74 621.2 73.3C640 72.7 659 70.3 677.8 69.2C696.7 68 715.3 68 734.2 69.8C753 71.7 772 75.3 790.8 73.2C809.7 71 828.3 63 847.2 61.5C866 60 885 65 903.8 66.8C922.7 68.7 941.3 67.3 950.7 66.7L960 66L960 0L950.7 0C941.3 0 922.7 0 903.8 0C885 0 866 0 847.2 0C828.3 0 809.7 0 790.8 0C772 0 753 0 734.2 0C715.3 0 696.7 0 677.8 0C659 0 640 0 621.2 0C602.3 0 583.7 0 564.8 0C546 0 527 0 508.2 0C489.3 0 470.7 0 451.8 0C433 0 414 0 395.2 0C376.3 0 357.7 0 338.8 0C320 0 301 0 282.2 0C263.3 0 244.7 0 225.8 0C207 0 188 0 169.2 0C150.3 0 131.7 0 112.8 0C94 0 75 0 56.2 0C37.3 0 18.7 0 9.3 0L0 0Z" fill="#6600ff"></path><path d="M0 40L9.3 42.8C18.7 45.7 37.3 51.3 56.2 53C75 54.7 94 52.3 112.8 53.2C131.7 54 150.3 58 169.2 57.2C188 56.3 207 50.7 225.8 51.2C244.7 51.7 263.3 58.3 282.2 61.2C301 64 320 63 338.8 59.8C357.7 56.7 376.3 51.3 395.2 50.2C414 49 433 52 451.8 52.5C470.7 53 489.3 51 508.2 49.2C527 47.3 546 45.7 564.8 46.3C583.7 47 602.3 50 621.2 49.3C640 48.7 659 44.3 677.8 44.5C696.7 44.7 715.3 49.3 734.2 53.5C753 57.7 772 61.3 790.8 60.5C809.7 59.7 828.3 54.3 847.2 53.2C866 52 885 55 903.8 58C922.7 61 941.3 64 950.7 65.5L960 67L960 0L950.7 0C941.3 0 922.7 0 903.8 0C885 0 866 0 847.2 0C828.3 0 809.7 0 790.8 0C772 0 753 0 734.2 0C715.3 0 696.7 0 677.8 0C659 0 640 0 621.2 0C602.3 0 583.7 0 564.8 0C546 0 527 0 508.2 0C489.3 0 470.7 0 451.8 0C433 0 414 0 395.2 0C376.3 0 357.7 0 338.8 0C320 0 301 0 282.2 0C263.3 0 244.7 0 225.8 0C207 0 188 0 169.2 0C150.3 0 131.7 0 112.8 0C94 0 75 0 56.2 0C37.3 0 18.7 0 9.3 0L0 0Z" fill="#5e20c6"></path><path d="M0 48L9.3 45.2C18.7 42.3 37.3 36.7 56.2 36.3C75 36 94 41 112.8 43C131.7 45 150.3 44 169.2 42.5C188 41 207 39 225.8 39.8C244.7 40.7 263.3 44.3 282.2 46.5C301 48.7 320 49.3 338.8 47.3C357.7 45.3 376.3 40.7 395.2 37.2C414 33.7 433 31.3 451.8 32.2C470.7 33 489.3 37 508.2 40.5C527 44 546 47 564.8 48.8C583.7 50.7 602.3 51.3 621.2 51.7C640 52 659 52 677.8 49.5C696.7 47 715.3 42 734.2 40.2C753 38.3 772 39.7 790.8 41.2C809.7 42.7 828.3 44.3 847.2 44C866 43.7 885 41.3 903.8 42C922.7 42.7 941.3 46.3 950.7 48.2L960 50L960 0L950.7 0C941.3 0 922.7 0 903.8 0C885 0 866 0 847.2 0C828.3 0 809.7 0 790.8 0C772 0 753 0 734.2 0C715.3 0 696.7 0 677.8 0C659 0 640 0 621.2 0C602.3 0 583.7 0 564.8 0C546 0 527 0 508.2 0C489.3 0 470.7 0 451.8 0C433 0 414 0 395.2 0C376.3 0 357.7 0 338.8 0C320 0 301 0 282.2 0C263.3 0 244.7 0 225.8 0C207 0 188 0 169.2 0C150.3 0 131.7 0 112.8 0C94 0 75 0 56.2 0C37.3 0 18.7 0 9.3 0L0 0Z" fill="#522a8f"></path><path d="M0 37L9.3 35.7C18.7 34.3 37.3 31.7 56.2 30.7C75 29.7 94 30.3 112.8 30C131.7 29.7 150.3 28.3 169.2 27.8C188 27.3 207 27.7 225.8 26.7C244.7 25.7 263.3 23.3 282.2 23.8C301 24.3 320 27.7 338.8 29C357.7 30.3 376.3 29.7 395.2 28.5C414 27.3 433 25.7 451.8 24.8C470.7 24 489.3 24 508.2 23.7C527 23.3 546 22.7 564.8 24.5C583.7 26.3 602.3 30.7 621.2 32.8C640 35 659 35 677.8 35C696.7 35 715.3 35 734.2 32.2C753 29.3 772 23.7 790.8 22.5C809.7 21.3 828.3 24.7 847.2 26.5C866 28.3 885 28.7 903.8 29C922.7 29.3 941.3 29.7 950.7 29.8L960 30L960 0L950.7 0C941.3 0 922.7 0 903.8 0C885 0 866 0 847.2 0C828.3 0 809.7 0 790.8 0C772 0 753 0 734.2 0C715.3 0 696.7 0 677.8 0C659 0 640 0 621.2 0C602.3 0 583.7 0 564.8 0C546 0 527 0 508.2 0C489.3 0 470.7 0 451.8 0C433 0 414 0 395.2 0C376.3 0 357.7 0 338.8 0C320 0 301 0 282.2 0C263.3 0 244.7 0 225.8 0C207 0 188 0 169.2 0C150.3 0 131.7 0 112.8 0C94 0 75 0 56.2 0C37.3 0 18.7 0 9.3 0L0 0Z" fill="#422d5c"></path><path d="M0 13L9.3 12.2C18.7 11.3 37.3 9.7 56.2 9.2C75 8.7 94 9.3 112.8 11.5C131.7 13.7 150.3 17.3 169.2 17.3C188 17.3 207 13.7 225.8 11.5C244.7 9.3 263.3 8.7 282.2 9.7C301 10.7 320 13.3 338.8 15.3C357.7 17.3 376.3 18.7 395.2 17.7C414 16.7 433 13.3 451.8 13.8C470.7 14.3 489.3 18.7 508.2 20.5C527 22.3 546 21.7 564.8 21.7C583.7 21.7 602.3 22.3 621.2 22.8C640 23.3 659 23.7 677.8 23.2C696.7 22.7 715.3 21.3 734.2 19.3C753 17.3 772 14.7 790.8 13.5C809.7 12.3 828.3 12.7 847.2 12C866 11.3 885 9.7 903.8 10.3C922.7 11 941.3 14 950.7 15.5L960 17L960 0L950.7 0C941.3 0 922.7 0 903.8 0C885 0 866 0 847.2 0C828.3 0 809.7 0 790.8 0C772 0 753 0 734.2 0C715.3 0 696.7 0 677.8 0C659 0 640 0 621.2 0C602.3 0 583.7 0 564.8 0C546 0 527 0 508.2 0C489.3 0 470.7 0 451.8 0C433 0 414 0 395.2 0C376.3 0 357.7 0 338.8 0C320 0 301 0 282.2 0C263.3 0 244.7 0 225.8 0C207 0 188 0 169.2 0C150.3 0 131.7 0 112.8 0C94 0 75 0 56.2 0C37.3 0 18.7 0 9.3 0L0 0Z" fill="#2c2c2c"></path></svg>